<svg xmlns="http://www.w3.org/2000/svg" viewBox="-500 -500 1000 1000">
  <g stroke="#000" stroke-width="26" stroke-linejoin="round" stroke-linecap="round">

    <!-- OUTER -->
    <polygon fill="#E61C24" points="0,-450 -390,-225 -195,-112.5 0,-225"/>
    <polygon fill="#6F84B4" points="0,-450 390,-225 195,-112.5 0,-225"/>
    <polygon fill="#F89A1C" points="390,-225 390,225 195,112.5 195,-112.5"/>
    <polygon fill="#0B84FF" points="390,225 0,450 0,225 195,112.5"/>
    <polygon fill="#2DBF45" points="0,450 -390,225 -195,112.5 0,225"/>
    <polygon fill="#8C33FD" points="-390,225 -390,-225 -195,-112.5 -195,112.5"/>

    <!-- MIDDLE -->
    <polygon fill="#B88CFF" points="0,-225 -195,-112.5 -97.5,-56.25 0,-112.5"/>
    <polygon fill="#5D1EFF" points="0,-225 195,-112.5 97.5,-56.25 0,-112.5"/>
    <polygon fill="#1FCBEE" points="195,-112.5 195,112.5 97.5,56.25 97.5,-56.25"/>
    <polygon fill="#FFD324" points="195,112.5 0,225 0,112.5 97.5,56.25"/>
    <polygon fill="#E9202A" points="0,225 -195,112.5 -97.5,56.25 0,112.5"/>
    <polygon fill="#FF3C99" points="-195,112.5 -195,-112.5 -97.5,-56.25 -97.5,56.25"/>

    <!-- CENTER (6 Sections) -->
    <polygon fill="#FFC700" points="0,0 0,-112.5 -97.5,-56.25"/>
    <polygon fill="#6A2DFF" points="0,0 97.5,-56.25 0,-112.5"/>
    <polygon fill="#00C9FF" points="0,0 97.5,-56.25 97.5,56.25"/>
    <polygon fill="#FFE03B" points="0,0 97.5,56.25 0,112.5"/>
    <polygon fill="#30C94E" points="0,0 0,112.5 -97.5,56.25"/>
    <polygon fill="#FF5B5B" points="0,0 -97.5,56.25 -97.5,-56.25"/>

  </g>
</svg>
